<svg width="36" height="38" viewBox="0 0 36 38" fill="none" xmlns="http://www.w3.org/2000/svg">
<rect x="0.5" y="1.46875" width="35" height="35" rx="17.5" fill="white" stroke="#828282"/>
<path d="M12.9955 21.1748H23.4916C23.983 21.1748 24.491 21.654 24.491 22.3837V24.2391C24.491 24.8108 24.2959 25.3354 23.9564 25.7219L23.9563 25.7221L20.1169 30.0978L19.9927 30.2393V30.4276V34.346C19.9927 34.483 19.9355 34.5918 19.8685 34.6489L19.8681 34.6493L16.8695 37.2124C16.8695 37.2124 16.8694 37.2125 16.8693 37.2126C16.8235 37.2516 16.7794 37.2638 16.7441 37.2638C16.7174 37.2638 16.6877 37.2571 16.6564 37.2393C16.5777 37.1944 16.4944 37.0769 16.4944 36.9094V30.4276V30.2393L16.3702 30.0978L12.5309 25.7221L12.5307 25.7219C12.1913 25.3354 11.9961 24.8108 11.9961 24.2391V22.3837C11.9961 21.654 12.5041 21.1748 12.9955 21.1748ZM23.6478 25.1734L23.6478 25.1733C23.8749 24.9145 23.9916 24.5802 23.9916 24.2391V22.3837V21.8837H23.4916H12.9955H12.4955V22.3837V24.2391C12.4955 24.5802 12.6122 24.9145 12.8393 25.1734L16.6787 29.5491C16.8768 29.7748 16.9939 30.0843 16.9939 30.4276V35.2005V36.2856L17.8187 35.5805L19.3182 34.2989L19.4933 34.1492V33.9188V30.4276C19.4933 30.0843 19.6104 29.7748 19.8084 29.5491L23.6478 25.1734Z" fill="#4F4F4F" stroke="#828282"/>
</svg>
