<svg width="35" height="37" viewBox="0 0 35 37" fill="none" xmlns="http://www.w3.org/2000/svg">
<g clip-path="url(#clip0_78_127)">
<path d="M27.8112 8.36431C26.466 6.93049 24.8568 5.78682 23.0775 5.00005C21.2983 4.21327 19.3847 3.79914 17.4483 3.78182C15.512 3.7645 13.5916 4.14433 11.7994 4.89916C10.0072 5.65399 8.37891 6.7687 7.00964 8.17824C5.64037 9.58778 4.55751 11.2639 3.82425 13.1089C3.09099 14.9538 2.72201 16.9306 2.73883 18.924C2.75566 20.9173 3.15796 22.8872 3.92226 24.7187C4.68655 26.5503 5.79754 28.2068 7.1904 29.5916C8.53567 31.0255 10.1449 32.1691 11.9241 32.9559C13.7033 33.7427 15.6169 34.1568 17.5533 34.1741C19.4897 34.1915 21.41 33.8116 23.2022 33.0568C24.9945 32.302 26.6227 31.1873 27.992 29.7777C29.3613 28.3682 30.4441 26.692 31.1774 24.8471C31.9106 23.0021 32.2796 21.0253 32.2628 19.032C32.246 17.0387 31.8437 15.0688 31.0794 13.2372C30.3151 11.4057 29.2041 9.74915 27.8112 8.36431ZM10.2091 29.9069C10.4987 28.1316 11.3902 26.5195 12.7251 25.3568C14.0601 24.1941 15.7521 23.5561 17.5008 23.5561C19.2495 23.5561 20.9416 24.1941 22.2765 25.3568C23.6115 26.5195 24.5029 28.1316 24.7925 29.9069C22.6481 31.4285 20.1052 32.2433 17.5008 32.2433C14.8964 32.2433 12.3535 31.4285 10.2091 29.9069ZM12.8487 17.0864C12.8487 16.1429 13.1204 15.2205 13.6293 14.4358C14.1382 13.651 14.8616 13.0391 15.7082 12.6774C16.5547 12.3156 17.4864 12.2202 18.3856 12.4032C19.2848 12.5862 20.1111 13.0394 20.7603 13.7055C21.4094 14.3716 21.8523 15.2209 22.0328 16.1459C22.2134 17.071 22.1237 18.0304 21.7749 18.9029C21.4261 19.7755 20.834 20.5221 20.0733 21.0485C19.3126 21.5749 18.4174 21.8574 17.5008 21.8603C16.2709 21.8603 15.0913 21.3574 14.2216 20.4621C13.3519 19.5668 12.8633 18.3525 12.8633 17.0864H12.8487ZM26.2508 28.6909C25.8724 27.326 25.1999 26.0666 24.2834 25.0061C23.3668 23.9457 22.2299 23.1116 20.9571 22.5659C22.1041 21.7987 22.9796 20.6703 23.4528 19.3491C23.9261 18.0279 23.9718 16.5846 23.5831 15.2345C23.1945 13.8844 22.3923 12.6997 21.2962 11.8572C20.2 11.0148 18.8688 10.5596 17.5008 10.5596C16.1329 10.5596 14.8016 11.0148 13.7055 11.8572C12.6094 12.6997 11.8072 13.8844 11.4185 15.2345C11.0298 16.5846 11.0755 18.0279 11.5488 19.3491C12.022 20.6703 12.8975 21.7987 14.0446 22.5659C12.7717 23.1116 11.6348 23.9457 10.7183 25.0061C9.80177 26.0666 9.12928 27.326 8.75082 28.6909C6.85142 26.88 5.52637 24.5218 4.94856 21.924C4.37075 19.3262 4.56701 16.6095 5.51173 14.1282C6.45645 11.647 8.10576 9.51646 10.2445 8.01469C12.3832 6.51293 14.9119 5.70964 17.5008 5.70964C20.0897 5.70964 22.6185 6.51293 24.7572 8.01469C26.8959 9.51646 28.5452 11.647 29.4899 14.1282C30.4346 16.6095 30.6309 19.3262 30.0531 21.924C29.4753 24.5218 28.1502 26.88 26.2508 28.6909Z" fill="#845B04"/>
</g>
<defs>
<clipPath id="clip0_78_127">
<rect width="35" height="36.0294" fill="white" transform="translate(0 0.96875)"/>
</clipPath>
</defs>
</svg>
